<svg width="114" height="18" viewBox="0 0 114 18" fill="none" xmlns="http://www.w3.org/2000/svg">
<path d="M2.49609 2.44922H14.8242V14.8945L11.7188 18H9.64453V5.83594H2.49609V2.44922ZM5.98828 14.8945H8.82422V18H3.72656L0.609375 14.8945V11.4844H5.98828V14.8945ZM31.1484 14.8945L28.043 18H24.5742V15.0938H25.8633V8.66016H24.5742V5.55469H28.043L31.1484 8.66016V14.8945ZM22.4062 15.0938H23.7539V18H20.2734L17.168 14.8945V8.66016L20.2734 5.55469H23.7539V8.66016H22.4062V15.0938ZM38.6719 0.808594V18H33.4922V0.808594H38.6719ZM41.8125 8.66016H39.4922V7.08984L41.0156 5.55469H43.8516L46.9688 8.66016V14.8945L43.8516 18H39.4922V15.0938H41.8125V8.66016ZM65.3672 2.44922H70.5938V18H65.4023V11.6836H61.5586V8.56641H65.3672V2.44922ZM60.7383 18H55.5586V2.44922H60.7383V18ZM86.5547 5.55469V18H81.375V5.55469H86.5547ZM78.2461 14.8945H80.5547V16.4414L79.0547 18H76.1836L73.0664 14.8945V5.55469H78.2461V14.8945ZM88.9922 18V5.55469H94.2188V18H88.9922ZM97.2891 8.66016H95.0625V7.30078L96.7969 5.55469H99.6797L102.48 8.35547V18H97.2891V8.66016ZM110.203 14.8945H113.625V18H108.141L105.023 14.8945V8.66016H103.992V5.55469H105.023V4.20703L110.203 2.44922V14.8945ZM111.023 8.66016V5.55469H113.812V8.66016H111.023Z" fill="#ad2021"/>
</svg>
